<svg xmlns="http://www.w3.org/2000/svg" version="1.1" xmlns:xlink="http://www.w3.org/1999/xlink" xmlns:svgjs="http://svgjs.com/svgjs" width="1440" height="560" preserveAspectRatio="none" viewBox="0 0 1440 560"><g mask="url(&quot;#SvgjsMask1589&quot;)" fill="none"><rect width="1440" height="560" x="0" y="0" fill="rgba(14, 42, 71, 1)"></rect><use xlink:href="#SvgjsG1600" transform="translate(0, 0)" fill="rgba(15, 69, 123, 1)"></use><use xlink:href="#SvgjsG1600" transform="translate(0, 480)" fill="rgba(15, 69, 123, 1)"></use><use xlink:href="#SvgjsG1600" transform="translate(480, 0)" fill="rgba(15, 69, 123, 1)"></use><use xlink:href="#SvgjsG1600" transform="translate(480, 480)" fill="rgba(15, 69, 123, 1)"></use><use xlink:href="#SvgjsG1600" transform="translate(960, 0)" fill="rgba(15, 69, 123, 1)"></use><use xlink:href="#SvgjsG1600" transform="translate(960, 480)" fill="rgba(15, 69, 123, 1)"></use></g><defs><mask id="SvgjsMask1589"><rect width="1440" height="560" fill="#ffffff"></rect></mask><g id="SvgjsG1597"><path d="M15.796 7.558a0.668 0.668 0 0 0-0.057-0.164l-2.897-2.3H7.012c-0.135-0.008-0.208 0.055-0.272 0.13L4.792 7.176 0.531 7.884c-0.059 0.051-0.119 0.102-0.167 0.236l0.01 1.466c0.092 0.235 0.154 0.204 0.225 0.237h0.82c0-1.993 2.968-1.985 2.968 0h7.57c0-1.997 2.946-1.993 2.946 0h0.673c0.113-0.011 0.177-0.11 0.23-0.227l-0.011-2.038z m-6.258-0.095h-4.038c-0.154-0.061-0.175-0.152-0.111-0.265l1.451-1.432c0.033-0.028 0.059-0.066 0.116-0.058h2.582v1.755z m4.182 0h-3.702v-1.755h2.172c0.057-0.008 0.083 0.03 0.116 0.058l1.244 1.254c0.114 0.173 0.345 0.409 0.169 0.444z" fill-rule="evenodd"></path><path d="M2.897 8.621a1.205 1.205 0 1 0 0 2.41 1.205 1.205 0 0 0 0-2.41z m0 1.71a0.509 0.509 0 1 1 0-1.017 0.509 0.509 0 0 1 0 1.018zM13.431 8.62a1.205 1.205 0 1 0 0 2.41 1.205 1.205 0 0 0 0-2.41z m0 1.71a0.509 0.509 0 1 1 0-1.016 0.509 0.509 0 0 1 0 1.018z" fill-rule="evenodd"></path></g><g id="SvgjsG1591"><path d="M14.548 5.951L13.236 2.565C12.991 1.916 12.455 1.365 11.441 1.36H4.548c-1.01 0.005-1.546 0.556-1.795 1.205l-1.312 3.386C0.92 6.019-0.002 6.63 0 7.79V12.102h1.28v1.377c-0.003 1.697 2.398 1.677 2.397 0V12.102h8.635v1.377c0.005 1.677 2.407 1.697 2.408 0V12.102h1.28V7.79c-0.004-1.16-0.926-1.772-1.452-1.838zM2.516 9.5c-0.613 0.002-1.11-0.51-1.107-1.139-0.003-0.634 0.494-1.146 1.107-1.141 0.612-0.005 1.108 0.507 1.108 1.141 0.001 0.629-0.496 1.141-1.108 1.139zM8 5.92H2.806l0.99-2.667c0.119-0.379 0.305-0.65 0.742-0.656H11.462c0.431 0.006 0.617 0.277 0.742 0.656l0.99 2.665H8z m5.484 3.58c-0.618 0.002-1.115-0.51-1.118-1.139 0.003-0.634 0.5-1.146 1.118-1.141 0.607-0.005 1.104 0.507 1.107 1.141-0.004 0.629-0.5 1.141-1.107 1.139z"></path></g><g id="SvgjsG1598"><path d="M12.57 11.336c0.436 0 0.787-0.358 0.788-0.801 0-0.437-0.351-0.796-0.788-0.796-0.438 0-0.789 0.358-0.788 0.796 0 0.443 0.351 0.801 0.788 0.801z m-1.822-0.801c0-1.014 0.814-1.839 1.823-1.839 1.004 0 1.818 0.825 1.818 1.839 0 1.019-0.814 1.843-1.818 1.843-1.008 0-1.822-0.825-1.823-1.843z"></path><path d="M15.279 8.566l-0.004-1.856c0-0.739-0.65-0.661-0.65-0.661H10.946L9.604 3.76H8.814l1.342 2.289-1.016 1.739-2.318-0.004c-0.801-1.662-2.428-1.558-2.428-1.558H0v3.95h0.628c0.084-1.344 1.361-2.409 2.71-2.409 1.349 0 2.629 1.068 2.71 2.409l3.82 0.004c0.081-1.345 1.361-2.413 2.71-2.413 1.349 0 2.633 1.068 2.71 2.415l0.237 0.003c0.263 0 0.475-0.216 0.476-0.482v-1.138h-0.721v0.001z"></path><path d="M3.331 11.336c0.437 0 0.791-0.358 0.79-0.801 0-0.437-0.354-0.796-0.791-0.796-0.434 0-0.789 0.358-0.788 0.796 0 0.443 0.355 0.801 0.788 0.801z m-1.819-0.801c0-1.014 0.815-1.839 1.819-1.839 1.008 0 1.82 0.825 1.819 1.839 0 1.019-0.813 1.843-1.82 1.843-1.004 0-1.819-0.825-1.819-1.843z"></path></g><g id="SvgjsG1599"><path d="M13.383 6.888l-2.486-0.003a0.399 0.399 0 0 1-0.4-0.4V5.205c0-0.222 0.178-0.4 0.397-0.4h1.352c0.069 0 0.131 0.033 0.174 0.084l1.141 1.647c0.025 0.036 0.043 0.08 0.044 0.13 0 0.124-0.098 0.222-0.222 0.222z m2.163 0.208c0-0.332-0.208-0.628-0.52-0.742l-0.734-0.247L12.827 3.992A0.392 0.392 0 0 0 12.525 3.85H10.203a0.683 0.683 0 0 0-0.683 0.683l0.003 2.479H0.001V9.92a0.47 0.47 0 0 0 0.469 0.469h1.257c0.069-1.043 1.116-1.872 2.177-1.872s2.108 0.829 2.181 1.872h4.667c0.076-1.036 1.12-1.857 2.18-1.857 1.058 0 2.101 0.821 2.177 1.857h0.418A0.47 0.47 0 0 0 16 9.92v-0.858h-0.454v-1.966z" fill-rule="evenodd"></path><path d="M12.925 11.359a0.625 0.625 0 0 0 0-1.25c-0.345 0-0.622 0.28-0.621 0.625s0.276 0.625 0.621 0.625z m-1.439-0.625c0-0.796 0.647-1.439 1.439-1.439 0.796 0 1.443 0.644 1.443 1.439s-0.646 1.439-1.442 1.439c-0.792 0-1.439-0.643-1.44-1.439z m-7.582 0.6a0.625 0.625 0 1 0 0-1.25 0.625 0.625 0 0 0 0 1.25z m-1.439-0.626c0-0.796 0.647-1.439 1.439-1.439 0.796 0 1.439 0.643 1.44 1.439s-0.643 1.439-1.44 1.44c-0.792 0-1.439-0.643-1.439-1.44z" fill-rule="evenodd"></path></g><g id="SvgjsG1590"><path d="M14.555 6.667L13.239 3.302c-0.243-0.635-0.779-1.18-1.791-1.177H9.598v-0.88c-0.004-0.35-0.194-0.528-0.505-0.525h-2.157C6.622 0.717 6.432 0.895 6.432 1.245v0.88h-1.88c-1.007-0.003-1.543 0.542-1.791 1.177L1.445 6.667c-0.518 0.062-1.44 0.668-1.445 1.811V12.752h1.286v1.366c-0.003 1.675 2.398 1.655 2.395 0V12.752h8.638v1.366c0.003 1.655 2.404 1.675 2.405 0V12.752H16V8.478c0.002-1.144-0.922-1.749-1.445-1.811z m-12.032 3.473c-0.614 0-1.111-0.507-1.108-1.128-0.003-0.629 0.494-1.136 1.108-1.138 0.611 0.002 1.107 0.509 1.108 1.138-0.001 0.621-0.498 1.128-1.108 1.128z m5.482-3.552H2.81l0.989-2.603c0.121-0.37 0.307-0.637 0.743-0.643h6.926c0.43 0.006 0.616 0.274 0.742 0.643L13.2 6.588H8.005z m5.481 3.552c-0.616 0-1.112-0.507-1.108-1.128-0.004-0.629 0.493-1.136 1.109-1.138 0.61 0.002 1.106 0.509 1.108 1.138-0.003 0.621-0.499 1.128-1.108 1.128z"></path></g><g id="SvgjsG1593"><path d="M5.93 13.874L13.4 6.4l2.074 2.08-7.47 7.468z"></path><path d="M6.328 0.04h3.366v12.752H6.328z"></path><path d="M8.014 15.96L0.54 8.486l2.07-2.072 7.476 7.47z"></path></g><g id="SvgjsG1592"><path d="M2.132 5.92l7.472 7.474-2.074 2.072L0.06 7.996z"></path><path d="M3.214 6.32h12.75v3.368H3.214z"></path><path d="M0.046 8.008L7.516 0.534l2.074 2.072L2.12 10.08z"></path></g><g id="SvgjsG1595"><path d="M13.88 10.08L6.414 2.608 8.484 0.536l7.472 7.47z"></path><path d="M0.048 6.314H12.8V9.68H0.046z"></path><path d="M15.966 7.994L8.496 15.468 6.424 13.4l7.47-7.48z"></path></g><g id="SvgjsG1596"><path d="M14.232 5.485L6.361 15.96l1.815-7.368-4.222 0.071L5.679 0h5.121L8.744 5.489z"></path></g><g id="SvgjsG1594"><path d="M7.713 4.71c0 0.211-0.166 0.374-0.379 0.375H3.374c-0.213 0-0.379-0.164-0.379-0.375V1.371c0-0.211 0.166-0.374 0.38-0.375h3.96c0.213 0 0.379 0.164 0.379 0.375V4.71z m4.617 0.427c-0.501-0.11-0.683-0.368-0.683-0.604v-0.864s0.333 0.074 0.413 0.094c0.163 0.042 0.266 0.291 0.27 0.509 0.005 0.218 0 0.863 0 0.863z m1.009 5.244c0-0.01-0.139-1.061-0.139-1.061V4.464c0-0.52-0.171-0.943-0.523-1.298L10.427 0.928c-0.155 0-0.585 0.428-0.585 0.428 0 0.156 1.116 1.264 1.117 1.264l-0.033 1.884c0 0.669 0.544 1.211 1.215 1.211l0.302 0.005-0.107 3.601 0.15 1.235 0.676 3.643c0.025 0.592-0.516 0.944-0.943 0.944-0.395 0-0.853-0.326-0.854-0.747l0.008-6.386c0-0.776-0.63-1.407-1.406-1.407h-1.357c0.096-0.005 0.099-4.181 0.099-5.067V1.371c0-0.756-0.618-1.371-1.374-1.371H3.374C2.616 0 2 0.615 2 1.371V16h6.71l0.005-8.499h1.266a0.528 0.528 0 0 1 0.528 0.527v6.368C10.509 15.251 11.307 16 12.218 16c0.86 0 1.824-0.684 1.824-1.604-0.015-0.212-0.704-4.015-0.704-4.015z"></path></g><g id="SvgjsG1600"><use xlink:href="#SvgjsG1590" transform="translate(0, 0) scale(2)" fill="rgba(15, 69, 123, 1)"></use><use xlink:href="#SvgjsG1591" transform="translate(0, 48) scale(2)" fill="rgba(15, 69, 123, 1)"></use><use xlink:href="#SvgjsG1592" transform="translate(0, 96) scale(2)" fill="rgba(15, 69, 123, 1)"></use><use xlink:href="#SvgjsG1592" transform="translate(0, 144) scale(2)" fill="rgba(15, 69, 123, 1)"></use><use xlink:href="#SvgjsG1593" transform="translate(0, 192) scale(2)" fill="rgba(15, 69, 123, 1)"></use><use xlink:href="#SvgjsG1594" transform="translate(0, 240) scale(2)" fill="rgba(15, 69, 123, 1)"></use><use xlink:href="#SvgjsG1595" transform="translate(0, 288) scale(2)" fill="rgba(15, 69, 123, 1)"></use><use xlink:href="#SvgjsG1596" transform="translate(0, 336) scale(2)" fill="rgba(15, 69, 123, 1)"></use><use xlink:href="#SvgjsG1594" transform="translate(0, 384) scale(2)" fill="rgba(15, 69, 123, 1)"></use><use xlink:href="#SvgjsG1597" transform="translate(0, 432) scale(2)" fill="rgba(15, 69, 123, 1)"></use><use xlink:href="#SvgjsG1598" transform="translate(48, 0) scale(2)" fill="rgba(15, 69, 123, 1)"></use><use xlink:href="#SvgjsG1595" transform="translate(48, 48) scale(2)" fill="rgba(15, 69, 123, 1)"></use><use xlink:href="#SvgjsG1590" transform="translate(48, 96) scale(2)" fill="rgba(15, 69, 123, 1)"></use><use xlink:href="#SvgjsG1592" transform="translate(48, 144) scale(2)" fill="rgba(15, 69, 123, 1)"></use><use xlink:href="#SvgjsG1599" transform="translate(48, 192) scale(2)" fill="rgba(15, 69, 123, 1)"></use><use xlink:href="#SvgjsG1598" transform="translate(48, 240) scale(2)" fill="rgba(15, 69, 123, 1)"></use><use xlink:href="#SvgjsG1596" transform="translate(48, 288) scale(2)" fill="rgba(15, 69, 123, 1)"></use><use xlink:href="#SvgjsG1597" transform="translate(48, 336) scale(2)" fill="rgba(15, 69, 123, 1)"></use><use xlink:href="#SvgjsG1597" transform="translate(48, 384) scale(2)" fill="rgba(15, 69, 123, 1)"></use><use xlink:href="#SvgjsG1590" transform="translate(48, 432) scale(2)" fill="rgba(15, 69, 123, 1)"></use><use xlink:href="#SvgjsG1598" transform="translate(96, 0) scale(2)" fill="rgba(15, 69, 123, 1)"></use><use xlink:href="#SvgjsG1597" transform="translate(96, 48) scale(2)" fill="rgba(15, 69, 123, 1)"></use><use xlink:href="#SvgjsG1592" transform="translate(96, 96) scale(2)" fill="rgba(15, 69, 123, 1)"></use><use xlink:href="#SvgjsG1598" transform="translate(96, 144) scale(2)" fill="rgba(15, 69, 123, 1)"></use><use xlink:href="#SvgjsG1593" transform="translate(96, 192) scale(2)" fill="rgba(15, 69, 123, 1)"></use><use xlink:href="#SvgjsG1599" transform="translate(96, 240) scale(2)" fill="rgba(15, 69, 123, 1)"></use><use xlink:href="#SvgjsG1594" transform="translate(96, 288) scale(2)" fill="rgba(15, 69, 123, 1)"></use><use xlink:href="#SvgjsG1592" transform="translate(96, 336) scale(2)" fill="rgba(15, 69, 123, 1)"></use><use xlink:href="#SvgjsG1596" transform="translate(96, 384) scale(2)" fill="rgba(15, 69, 123, 1)"></use><use xlink:href="#SvgjsG1591" transform="translate(96, 432) scale(2)" fill="rgba(15, 69, 123, 1)"></use><use xlink:href="#SvgjsG1596" transform="translate(144, 0) scale(2)" fill="rgba(15, 69, 123, 1)"></use><use xlink:href="#SvgjsG1592" transform="translate(144, 48) scale(2)" fill="rgba(15, 69, 123, 1)"></use><use xlink:href="#SvgjsG1591" transform="translate(144, 96) scale(2)" fill="rgba(15, 69, 123, 1)"></use><use xlink:href="#SvgjsG1594" transform="translate(144, 144) scale(2)" fill="rgba(15, 69, 123, 1)"></use><use xlink:href="#SvgjsG1594" transform="translate(144, 192) scale(2)" fill="rgba(15, 69, 123, 1)"></use><use xlink:href="#SvgjsG1598" transform="translate(144, 240) scale(2)" fill="rgba(15, 69, 123, 1)"></use><use xlink:href="#SvgjsG1590" transform="translate(144, 288) scale(2)" fill="rgba(15, 69, 123, 1)"></use><use xlink:href="#SvgjsG1598" transform="translate(144, 336) scale(2)" fill="rgba(15, 69, 123, 1)"></use><use xlink:href="#SvgjsG1597" transform="translate(144, 384) scale(2)" fill="rgba(15, 69, 123, 1)"></use><use xlink:href="#SvgjsG1595" transform="translate(144, 432) scale(2)" fill="rgba(15, 69, 123, 1)"></use><use xlink:href="#SvgjsG1598" transform="translate(192, 0) scale(2)" fill="rgba(15, 69, 123, 1)"></use><use xlink:href="#SvgjsG1592" transform="translate(192, 48) scale(2)" fill="rgba(15, 69, 123, 1)"></use><use xlink:href="#SvgjsG1597" transform="translate(192, 96) scale(2)" fill="rgba(15, 69, 123, 1)"></use><use xlink:href="#SvgjsG1597" transform="translate(192, 144) scale(2)" fill="rgba(15, 69, 123, 1)"></use><use xlink:href="#SvgjsG1597" transform="translate(192, 192) scale(2)" fill="rgba(15, 69, 123, 1)"></use><use xlink:href="#SvgjsG1591" transform="translate(192, 240) scale(2)" fill="rgba(15, 69, 123, 1)"></use><use xlink:href="#SvgjsG1590" transform="translate(192, 288) scale(2)" fill="rgba(15, 69, 123, 1)"></use><use xlink:href="#SvgjsG1590" transform="translate(192, 336) scale(2)" fill="rgba(15, 69, 123, 1)"></use><use xlink:href="#SvgjsG1596" transform="translate(192, 384) scale(2)" fill="rgba(15, 69, 123, 1)"></use><use xlink:href="#SvgjsG1599" transform="translate(192, 432) scale(2)" fill="rgba(15, 69, 123, 1)"></use><use xlink:href="#SvgjsG1594" transform="translate(240, 0) scale(2)" fill="rgba(15, 69, 123, 1)"></use><use xlink:href="#SvgjsG1597" transform="translate(240, 48) scale(2)" fill="rgba(15, 69, 123, 1)"></use><use xlink:href="#SvgjsG1596" transform="translate(240, 96) scale(2)" fill="rgba(15, 69, 123, 1)"></use><use xlink:href="#SvgjsG1591" transform="translate(240, 144) scale(2)" fill="rgba(15, 69, 123, 1)"></use><use xlink:href="#SvgjsG1597" transform="translate(240, 192) scale(2)" fill="rgba(15, 69, 123, 1)"></use><use xlink:href="#SvgjsG1597" transform="translate(240, 240) scale(2)" fill="rgba(15, 69, 123, 1)"></use><use xlink:href="#SvgjsG1593" transform="translate(240, 288) scale(2)" fill="rgba(15, 69, 123, 1)"></use><use xlink:href="#SvgjsG1590" transform="translate(240, 336) scale(2)" fill="rgba(15, 69, 123, 1)"></use><use xlink:href="#SvgjsG1593" transform="translate(240, 384) scale(2)" fill="rgba(15, 69, 123, 1)"></use><use xlink:href="#SvgjsG1590" transform="translate(240, 432) scale(2)" fill="rgba(15, 69, 123, 1)"></use><use xlink:href="#SvgjsG1592" transform="translate(288, 0) scale(2)" fill="rgba(15, 69, 123, 1)"></use><use xlink:href="#SvgjsG1592" transform="translate(288, 48) scale(2)" fill="rgba(15, 69, 123, 1)"></use><use xlink:href="#SvgjsG1592" transform="translate(288, 96) scale(2)" fill="rgba(15, 69, 123, 1)"></use><use xlink:href="#SvgjsG1598" transform="translate(288, 144) scale(2)" fill="rgba(15, 69, 123, 1)"></use><use xlink:href="#SvgjsG1594" transform="translate(288, 192) scale(2)" fill="rgba(15, 69, 123, 1)"></use><use xlink:href="#SvgjsG1590" transform="translate(288, 240) scale(2)" fill="rgba(15, 69, 123, 1)"></use><use xlink:href="#SvgjsG1593" transform="translate(288, 288) scale(2)" fill="rgba(15, 69, 123, 1)"></use><use xlink:href="#SvgjsG1595" transform="translate(288, 336) scale(2)" fill="rgba(15, 69, 123, 1)"></use><use xlink:href="#SvgjsG1595" transform="translate(288, 384) scale(2)" fill="rgba(15, 69, 123, 1)"></use><use xlink:href="#SvgjsG1592" transform="translate(288, 432) scale(2)" fill="rgba(15, 69, 123, 1)"></use><use xlink:href="#SvgjsG1592" transform="translate(336, 0) scale(2)" fill="rgba(15, 69, 123, 1)"></use><use xlink:href="#SvgjsG1599" transform="translate(336, 48) scale(2)" fill="rgba(15, 69, 123, 1)"></use><use xlink:href="#SvgjsG1596" transform="translate(336, 96) scale(2)" fill="rgba(15, 69, 123, 1)"></use><use xlink:href="#SvgjsG1599" transform="translate(336, 144) scale(2)" fill="rgba(15, 69, 123, 1)"></use><use xlink:href="#SvgjsG1592" transform="translate(336, 192) scale(2)" fill="rgba(15, 69, 123, 1)"></use><use xlink:href="#SvgjsG1598" transform="translate(336, 240) scale(2)" fill="rgba(15, 69, 123, 1)"></use><use xlink:href="#SvgjsG1599" transform="translate(336, 288) scale(2)" fill="rgba(15, 69, 123, 1)"></use><use xlink:href="#SvgjsG1597" transform="translate(336, 336) scale(2)" fill="rgba(15, 69, 123, 1)"></use><use xlink:href="#SvgjsG1598" transform="translate(336, 384) scale(2)" fill="rgba(15, 69, 123, 1)"></use><use xlink:href="#SvgjsG1596" transform="translate(336, 432) scale(2)" fill="rgba(15, 69, 123, 1)"></use><use xlink:href="#SvgjsG1590" transform="translate(384, 0) scale(2)" fill="rgba(15, 69, 123, 1)"></use><use xlink:href="#SvgjsG1594" transform="translate(384, 48) scale(2)" fill="rgba(15, 69, 123, 1)"></use><use xlink:href="#SvgjsG1592" transform="translate(384, 96) scale(2)" fill="rgba(15, 69, 123, 1)"></use><use xlink:href="#SvgjsG1594" transform="translate(384, 144) scale(2)" fill="rgba(15, 69, 123, 1)"></use><use xlink:href="#SvgjsG1595" transform="translate(384, 192) scale(2)" fill="rgba(15, 69, 123, 1)"></use><use xlink:href="#SvgjsG1590" transform="translate(384, 240) scale(2)" fill="rgba(15, 69, 123, 1)"></use><use xlink:href="#SvgjsG1597" transform="translate(384, 288) scale(2)" fill="rgba(15, 69, 123, 1)"></use><use xlink:href="#SvgjsG1594" transform="translate(384, 336) scale(2)" fill="rgba(15, 69, 123, 1)"></use><use xlink:href="#SvgjsG1591" transform="translate(384, 384) scale(2)" fill="rgba(15, 69, 123, 1)"></use><use xlink:href="#SvgjsG1595" transform="translate(384, 432) scale(2)" fill="rgba(15, 69, 123, 1)"></use><use xlink:href="#SvgjsG1590" transform="translate(432, 0) scale(2)" fill="rgba(15, 69, 123, 1)"></use><use xlink:href="#SvgjsG1593" transform="translate(432, 48) scale(2)" fill="rgba(15, 69, 123, 1)"></use><use xlink:href="#SvgjsG1590" transform="translate(432, 96) scale(2)" fill="rgba(15, 69, 123, 1)"></use><use xlink:href="#SvgjsG1591" transform="translate(432, 144) scale(2)" fill="rgba(15, 69, 123, 1)"></use><use xlink:href="#SvgjsG1599" transform="translate(432, 192) scale(2)" fill="rgba(15, 69, 123, 1)"></use><use xlink:href="#SvgjsG1598" transform="translate(432, 240) scale(2)" fill="rgba(15, 69, 123, 1)"></use><use xlink:href="#SvgjsG1591" transform="translate(432, 288) scale(2)" fill="rgba(15, 69, 123, 1)"></use><use xlink:href="#SvgjsG1594" transform="translate(432, 336) scale(2)" fill="rgba(15, 69, 123, 1)"></use><use xlink:href="#SvgjsG1592" transform="translate(432, 384) scale(2)" fill="rgba(15, 69, 123, 1)"></use><use xlink:href="#SvgjsG1596" transform="translate(432, 432) scale(2)" fill="rgba(15, 69, 123, 1)"></use></g></defs></svg>